<svg aria-hidden="true" style="position: absolute; width: 0; height: 0; overflow: hidden;" version="1.1" xmlns="http://www.w3.org/2000/svg" xmlns:xlink="http://www.w3.org/1999/xlink">
<defs>
    <symbol id="icon-burger" viewBox="0 0 32 32">
    <path stroke-linejoin="round" stroke-linecap="round" stroke-miterlimit="4" stroke-width="2.6667" d="M4 16h24"></path>
    <path stroke-linejoin="round" stroke-linecap="round" stroke-miterlimit="4" stroke-width="2.6667" d="M4 8h24"></path>
    <path stroke-linejoin="round" stroke-linecap="round" stroke-miterlimit="4" stroke-width="2.6667" d="M4 24h24"></path>
    </symbol>

    <symbol id="icon-arrow" viewBox="0 0 32 32">
    <path stroke-linejoin="round" stroke-linecap="round" stroke-miterlimit="4" stroke-width="2.6" d="M4.451 9.334c2.305-3.985 6.614-6.667 11.55-6.667 7.364 0 13.333 5.97 13.333 13.333s-5.969 13.333-13.333 13.333c-4.935 0-9.244-2.681-11.55-6.667"></path>
    <path stroke-linejoin="round" stroke-linecap="round" stroke-miterlimit="4" stroke-width="2.6" d="M16 21.334l5.333-5.333-5.333-5.333"></path>
    <path stroke-linejoin="round" stroke-linecap="round" stroke-miterlimit="4" stroke-width="2.6" d="M2.666 16h18.667"></path>
    </symbol>

    <symbol id="icon-trash" viewBox="0 0 32 32">
    <path stroke-linejoin="round" stroke-linecap="round" stroke-miterlimit="4" stroke-width="2.6" d="M12 4h8"></path>
    <path stroke-linejoin="round" stroke-linecap="round" stroke-miterlimit="4" stroke-width="2.6" d="M4 8h24"></path>
    <path stroke-linejoin="round" stroke-linecap="round" stroke-miterlimit="4" stroke-width="2.6" d="M6.666 8l0.801 12.018c0.149 2.231 0.223 3.347 0.588 4.243 0.662 1.627 2.004 2.883 3.672 3.435 0.919 0.304 2.037 0.304 4.273 0.304v0c2.236 0 3.354 0 4.273-0.304 1.668-0.552 3.010-1.808 3.672-3.435 0.365-0.896 0.439-2.012 0.588-4.243l0.801-12.018"></path>
    </symbol>
    
</defs>
</svg>
